<svg width="261" height="261" viewBox="0 0 261 261" fill="none" xmlns="http://www.w3.org/2000/svg">
<rect width="261" height="261" rx="20" fill="#1A535C"/>
<circle cx="130.5" cy="130.5" r="120" fill="white" stroke="#4ECDC4"/>
<path fill-rule="evenodd" clip-rule="evenodd" d="M48.356 103.835L48.3393 103.741L42.8492 72.605C41.7454 66.3446 44.9323 60.5589 49.96 59.6723L179.816 36.7753C184.85 35.8876 189.825 40.2423 190.927 46.4949L196.417 77.6307L196.434 77.725L196.451 77.8193L216.285 190.308C217.389 196.568 214.204 202.362 209.17 203.249L79.3139 226.147C74.2799 227.034 69.3112 222.678 68.2074 216.418L48.3726 103.929L48.356 103.835ZM191.906 81.8926L54.0417 106.202L73.317 215.517C73.8017 218.267 75.9889 220.181 78.1996 219.791L208.055 196.894C210.266 196.504 211.667 193.957 211.182 191.208L191.906 81.8926ZM72.0331 133.587C70.6246 133.835 69.2307 132.615 68.9219 130.863C68.613 129.112 69.5056 127.488 70.914 127.24L183.249 107.432C184.657 107.184 186.051 108.404 186.36 110.156C186.669 111.907 185.776 113.531 184.368 113.779L72.0331 133.587ZM78.0054 167.457C76.5969 167.706 75.203 166.486 74.8942 164.734C74.5853 162.982 75.4779 161.359 76.8864 161.111L189.221 141.303C190.629 141.055 192.023 142.275 192.332 144.026C192.641 145.778 191.748 147.401 190.34 147.65L78.0054 167.457ZM83.9777 201.328C82.5692 201.576 81.1753 200.356 80.8665 198.605C80.5576 196.853 81.4502 195.23 82.8587 194.981L195.193 175.174C196.602 174.925 197.996 176.146 198.304 177.897C198.613 179.649 197.721 181.272 196.312 181.52L83.9777 201.328Z" fill="black"/>
<path d="M50.381 63.0221L181.267 39.9434C183.714 39.5118 186.048 41.1461 186.48 43.5936L192.354 76.9091L52.6052 101.551L46.7308 68.2352C46.2992 65.7876 47.9335 63.4537 50.381 63.0221Z" fill="#FFE66D" stroke="black"/>
</svg>
