<svg xmlns="http://www.w3.org/2000/svg" version="1.1" viewBox="-5.0 -10.0 110.0 135.0">
 <path d="m69.027 63.27c-0.44531-0.10938-0.91016 0.097657-1.125 0.50391l-3.0039 5.6719-8.3594 4.4688-0.92969-9.5195 14.062-26.547c0.078125-0.14453 0.11719-0.30469 0.11719-0.46875v-14.746c0-5.1953-4.2266-9.4219-9.4219-9.4219h-37.016c-5.1953 0-9.4219 4.2266-9.4219 9.4219v54.738c0 5.1953 4.2266 9.4219 9.4219 9.4219h37.012c5.1953 0 9.4219-4.2266 9.4219-9.4219v-13.133c0-0.45703-0.3125-0.85938-0.75781-0.96875zm-47.371-34.605h32.777c0.60938 0 1.1055 0.49609 1.1055 1.1055s-0.49609 1.1055-1.1055 1.1055l-32.777-0.003906c-0.60938 0-1.1055-0.49609-1.1055-1.1055 0.003907-0.60938 0.49609-1.1016 1.1055-1.1016zm0 16.117h17.242c0.60937 0 1.1055 0.49609 1.1055 1.1016 0 0.60938-0.49609 1.1055-1.1055 1.1055l-17.242 0.003907c-0.60938 0-1.1055-0.49609-1.1055-1.1055 0.003907-0.60938 0.49609-1.1055 1.1055-1.1055z"/>
 <path d="m81.859 30.598-3.6328-2.0117c-0.23437-0.12891-0.51172-0.16016-0.76953-0.082032-0.25781 0.078125-0.47266 0.25391-0.59766 0.49219l-4.7773 9.0234c-0.050781 0.097657-0.085937 0.20312-0.10547 0.31641-0.039062 0.25-0.15625 0.46875-0.33594 0.63281-0.085937 0.078125-0.15234 0.16797-0.20703 0.26953l-13.422 25.34c-0.09375 0.17188-0.13281 0.37109-0.10938 0.56641l0.36719 3.7695c0.03125 0.33203 0.22656 0.625 0.52344 0.78516 0.14844 0.078125 0.30859 0.11719 0.47266 0.11719s0.32422-0.039062 0.47266-0.11719l3.2539-1.7383c0.17578-0.09375 0.32031-0.23828 0.41406-0.41406l6.3516-11.984c0.035157-0.0625 0.0625-0.13281 0.082032-0.20312 0.042968-0.15625 0.11719-0.29688 0.22266-0.42188 0.046875-0.054688 0.085938-0.11328 0.11719-0.17578l12.082-22.809c0.25391-0.49609 0.074219-1.0938-0.40234-1.3555z"/>
 <path d="m85.551 23.633-3.6328-2.0078c-0.23438-0.12891-0.51172-0.16016-0.76953-0.082031-0.25781 0.078125-0.47266 0.25391-0.59766 0.49219l-1.7188 3.2461c-0.25391 0.48047-0.078125 1.0781 0.39844 1.3438l3.6328 2.0078c0.14844 0.082032 0.31641 0.125 0.48438 0.125 0.09375 0 0.19141-0.015624 0.28516-0.042968 0.25781-0.078125 0.47266-0.25391 0.59766-0.49219l1.7188-3.2461c0.25391-0.48437 0.078125-1.082-0.39844-1.3438z"/>
<text x="0.0" y="117.5" font-size="5.0" font-weight="bold" font-family="Arbeit Regular, Helvetica, Arial-Unicode, Arial, Sans-serif" fill="#000000">Created by Ariyanto Deni</text><text x="0.0" y="122.5" font-size="5.0" font-weight="bold" font-family="Arbeit Regular, Helvetica, Arial-Unicode, Arial, Sans-serif" fill="#000000">from Noun Project</text></svg>